<svg width="237" height="153" viewBox="0 0 237 153" fill="none" xmlns="http://www.w3.org/2000/svg">
<path d="M118.454 47.4105C125.932 46.2619 127.254 42.4867 123.783 29.3939C124.848 29.7365 128.016 31.647 130.66 37.95C131.458 39.851 131.616 44.6723 131.607 47.4159C131.593 51.5652 130.668 55.381 131.047 57.8521C132.799 49.4896 134.041 44.1925 153.394 34.462C170.771 25.7259 186.931 15.6587 187.012 3C187.415 7.82798 188.435 17.5525 189.287 17.8265C190.351 18.1691 233.303 27.7663 233.944 41.8319C234.127 45.8506 231.287 31.1108 209.845 36.424C204.484 37.7523 193.954 42.5189 193.047 61.8521C192.648 70.3521 207.373 86.8823 205.757 85.6128C193.511 75.9939 189.799 67.3214 183.374 68.3071C174.972 69.5961 162.547 69.8521 160.047 86.3521C159.967 88.5649 160.646 94.9153 162.547 100.352C163.705 103.663 165.753 108.412 167.047 111.852C167.831 113.935 160.78 109.712 156.335 93.1953C153.982 84.4511 145.547 77.8521 145.047 95.3521C145.047 107.352 148.587 115.225 138.774 90.8312C137.206 86.9342 130.523 96.9175 126.107 110.479C121.884 123.447 119.591 139.714 118.547 149.023C117.503 139.714 115.067 123.447 110.845 110.479C106.429 96.9175 99.7455 86.9342 98.1779 90.8312C88.365 115.225 91.9045 107.352 91.9045 95.3521C91.4045 77.8521 82.9695 84.4511 80.6162 93.1953C76.1711 109.712 69.1211 113.935 69.9045 111.852C71.1981 108.412 73.2468 103.663 74.4045 100.352C76.3052 94.9153 76.9841 88.5649 76.9045 86.3521C74.4045 69.8521 61.9795 69.5961 53.5778 68.3071C47.153 67.3214 43.441 75.9939 31.1945 85.6128C29.5782 86.8823 44.3033 70.3521 43.9045 61.8521C42.9973 42.5189 32.4673 37.7523 27.1068 36.424C5.66451 31.1108 2.82493 45.8506 3.00792 41.8319C3.64838 27.7663 46.6006 18.1691 47.6648 17.8265C48.5163 17.5525 49.5361 7.82798 49.9396 3C50.0208 15.6587 66.1811 25.7259 83.5572 34.462C102.911 44.1925 104.152 49.4896 105.904 57.8521C106.284 55.381 105.358 51.5652 105.345 47.4159C105.336 44.6723 105.494 39.851 106.291 37.95C108.935 31.647 112.104 29.7365 113.168 29.3939C109.698 42.4867 110.976 46.2619 118.454 47.4105Z" fill="#B39AD7" stroke="black" stroke-width="6" stroke-linejoin="round"/>
</svg>
