<?xml version="1.0" standalone="no"?>
<!DOCTYPE svg PUBLIC "-//W3C//DTD SVG 20010904//EN"
 "http://www.w3.org/TR/2001/REC-SVG-20010904/DTD/svg10.dtd">
<svg version="1.0" xmlns="http://www.w3.org/2000/svg"
 width="948.000000pt" height="948.000000pt" viewBox="0 0 948.000000 948.000000"
 preserveAspectRatio="xMidYMid meet">
<metadata>
Created by potrace 1.14, written by Peter Selinger 2001-2017
</metadata>
<g transform="translate(0.000000,948.000000) scale(0.100000,-0.100000)"
fill="#000000" stroke="none">
<path d="M1938 7784 c-15 -8 -34 -27 -42 -42 -14 -27 -18 -50 -32 -197 -6 -62
-7 -74 -18 -165 -25 -199 -20 -188 -79 -204 -29 -8 -90 -24 -135 -37 -46 -12
-90 -22 -98 -22 -8 0 -14 -4 -14 -9 0 -4 -9 -8 -20 -8 -10 0 -29 -4 -42 -9
-13 -5 -50 -17 -83 -26 -33 -9 -69 -20 -80 -25 -11 -5 -54 -19 -95 -32 -41
-12 -77 -25 -80 -28 -3 -3 -14 -7 -25 -8 -11 -2 -59 -19 -106 -38 -47 -19 -91
-34 -98 -34 -6 0 -11 -4 -11 -8 0 -5 -6 -9 -12 -9 -27 0 -317 -139 -427 -205
-269 -161 -427 -350 -437 -524 -6 -116 32 -169 122 -169 l55 0 82 85 c101 105
143 137 170 132 4 -1 7 2 7 7 0 8 11 12 63 26 4 2 8 3 10 5 1 1 9 3 17 5 8 2
29 6 45 10 54 13 268 13 340 -1 201 -37 248 -53 366 -130 59 -39 149 -128 173
-172 5 -10 12 -19 16 -22 4 -3 24 -41 45 -85 53 -114 55 -117 60 -144 2 -13
11 -47 19 -75 8 -28 17 -71 21 -96 3 -25 8 -61 11 -80 12 -83 7 -196 -10 -250
-27 -80 -157 -333 -186 -360 -3 -3 -27 -38 -55 -79 -64 -95 -67 -99 -151 -211
-106 -142 -114 -162 -86 -232 22 -55 109 -81 162 -49 29 18 166 130 214 175
18 17 55 52 82 77 27 26 106 105 175 175 224 229 269 260 367 250 31 -3 68 -7
82 -10 14 -2 43 -7 65 -10 50 -7 92 -14 125 -22 14 -3 36 -8 50 -10 71 -13
220 -79 269 -119 49 -40 93 -91 126 -145 30 -50 79 -176 92 -240 10 -46 3
-223 -11 -268 -3 -9 -8 -30 -11 -47 -19 -107 -27 -140 -61 -242 -23 -70 -131
-346 -159 -408 -34 -77 -37 -123 -10 -174 30 -59 110 -79 179 -46 57 27 138
114 208 221 91 139 174 329 239 548 21 72 53 159 70 193 34 67 93 138 107 129
14 -9 41 -114 50 -198 9 -87 8 -235 -3 -358 -16 -177 -15 -222 7 -263 11 -22
28 -42 39 -44 10 -3 19 -9 19 -14 0 -14 69 -10 100 6 38 20 70 65 104 145 15
36 31 73 37 82 5 10 9 25 9 33 0 8 4 15 10 15 5 0 9 3 8 8 -1 8 -1 9 58 157
24 61 44 116 44 123 0 6 5 12 11 12 5 0 7 5 4 10 -3 6 -2 10 2 10 8 0 18 -13
76 -109 50 -84 163 -325 188 -401 4 -14 22 -63 39 -110 17 -47 33 -92 35 -100
10 -44 18 -76 24 -85 3 -5 7 -19 8 -30 2 -11 8 -31 13 -45 6 -14 12 -34 14
-45 2 -11 13 -56 25 -100 11 -44 22 -91 25 -105 2 -14 12 -59 21 -100 24 -110
23 -106 45 -220 28 -150 30 -161 36 -200 2 -19 7 -46 10 -60 5 -27 14 -87 19
-135 2 -16 5 -30 5 -30 1 0 4 -13 5 -30 4 -36 13 -98 16 -105 1 -3 1 -7 1 -10
0 -3 5 -52 13 -109 12 -92 17 -107 42 -133 55 -55 154 -44 187 21 8 15 18 52
21 82 3 30 7 65 9 79 7 48 15 105 22 160 3 30 8 64 11 75 2 11 5 34 7 50 10
78 18 131 21 145 5 15 14 69 20 119 2 14 4 26 5 26 1 0 3 9 4 20 4 29 15 86
21 115 7 31 13 57 19 90 10 59 60 272 83 355 13 50 26 100 29 111 4 22 96 290
130 379 10 28 22 52 27 53 4 2 7 12 7 22 0 10 5 22 10 25 6 4 8 10 5 15 -3 4
2 13 10 20 8 7 13 16 10 20 -3 4 3 18 13 31 10 13 22 33 26 44 14 38 110 194
123 199 7 3 12 2 11 -2 -1 -4 2 -16 7 -27 90 -224 179 -440 196 -475 60 -123
186 -135 241 -24 16 33 16 66 2 234 -4 52 -8 154 -8 225 0 113 3 155 19 260 4
24 33 95 40 95 10 0 53 -50 82 -96 30 -46 103 -249 103 -284 0 -9 4 -20 8 -25
5 -6 15 -30 22 -55 8 -25 16 -49 20 -55 3 -5 12 -28 19 -50 21 -63 119 -255
157 -308 19 -26 34 -49 34 -52 0 -18 112 -129 161 -160 45 -29 105 -33 149
-10 32 17 68 78 64 110 -5 36 -21 90 -37 125 -9 19 -36 87 -61 150 -24 63 -50
129 -57 145 -7 17 -13 33 -14 38 -2 4 -4 9 -5 12 -1 3 -3 8 -5 13 -1 4 -5 14
-8 22 -6 15 -39 126 -43 145 -1 6 -9 44 -17 85 -51 247 -41 365 44 538 52 107
130 186 231 235 63 31 97 46 118 52 3 0 14 4 25 8 11 3 31 8 45 11 14 2 36 7
50 10 44 10 84 17 130 22 25 3 63 9 84 14 72 16 137 7 189 -25 26 -17 132
-115 235 -220 104 -104 222 -219 263 -255 40 -36 80 -72 89 -80 46 -43 109
-88 138 -98 75 -26 142 20 157 107 5 30 -23 78 -128 219 -133 178 -227 321
-287 437 -105 203 -112 256 -75 516 16 108 82 292 132 369 60 92 75 109 129
158 78 71 202 138 286 156 13 3 42 10 66 16 95 23 328 33 419 17 109 -18 243
-93 310 -173 21 -25 45 -53 53 -63 25 -30 55 -40 103 -37 51 3 83 24 99 66 16
40 17 106 3 159 -14 52 -55 144 -67 149 -5 2 -8 9 -8 16 0 20 -162 177 -228
222 -31 21 -59 41 -62 44 -3 3 -16 11 -30 19 -137 79 -215 122 -217 122 -2 -1
-38 15 -80 35 -42 19 -100 44 -127 56 -28 11 -64 26 -81 33 -16 7 -52 21 -80
30 -27 10 -56 23 -62 28 -7 5 -13 7 -13 4 0 -3 -37 8 -82 25 -46 16 -87 31
-93 32 -5 1 -55 16 -110 34 -96 30 -230 70 -264 78 -81 19 -179 46 -190 52 -8
5 -15 17 -16 28 -2 17 -5 43 -21 154 -3 19 -7 49 -9 65 -9 89 -16 165 -20 205
-2 25 -6 55 -9 66 -12 57 -67 99 -119 90 -92 -14 -107 -36 -122 -171 -12 -104
-56 -202 -144 -320 -25 -32 -251 -255 -260 -255 -4 0 -17 -8 -29 -17 -54 -47
-63 -53 -71 -53 -5 0 -11 -4 -13 -9 -4 -12 -203 -141 -217 -141 -6 0 -11 -5
-11 -10 0 -6 -8 -14 -17 -17 -10 -4 -56 -29 -103 -56 -47 -27 -121 -68 -165
-91 -44 -22 -82 -43 -85 -46 -7 -7 -53 -27 -64 -28 -5 0 -12 -4 -15 -9 -3 -5
-53 -33 -111 -62 -134 -68 -242 -126 -255 -137 -6 -5 -26 -18 -45 -28 -43 -23
-218 -143 -245 -167 -11 -10 -42 -38 -70 -63 -27 -24 -51 -43 -53 -41 -2 2 -5
28 -8 59 -6 99 -19 153 -52 225 -14 31 -26 58 -27 61 -4 14 -44 78 -78 124
-135 185 -289 251 -359 153 -28 -39 -28 -93 2 -212 12 -49 24 -99 25 -110 2
-11 7 -42 11 -70 20 -135 -1 -223 -58 -248 -78 -36 -112 -37 -182 -8 -67 29
-80 56 -79 165 0 50 8 127 17 171 10 44 19 87 21 95 1 8 8 33 14 55 27 105 17
156 -38 188 -105 61 -258 -45 -388 -268 -63 -110 -86 -183 -99 -315 -3 -36 -7
-66 -9 -68 -1 -2 -22 16 -46 39 -53 51 -222 179 -236 179 -5 0 -18 9 -28 20
-10 11 -24 20 -32 20 -7 0 -13 5 -13 10 0 6 -4 10 -10 10 -5 0 -33 14 -61 31
-54 34 -106 62 -349 187 -237 123 -245 127 -250 133 -3 3 -30 18 -60 33 -30
16 -62 34 -71 42 -8 8 -18 14 -22 14 -10 0 -202 123 -205 132 -2 4 -8 8 -13 8
-9 0 -66 37 -79 50 -3 3 -43 35 -90 72 -116 90 -218 191 -275 272 -11 15 -24
33 -30 40 -17 19 -65 115 -81 163 -16 48 -22 77 -28 151 -8 96 -98 150 -178
106z"/>
</g>
</svg>
